<?xml version="1.0" encoding="utf-8"?>
<!-- Uploaded to: SVG Repo, www.svgrepo.com, Generator: SVG Repo Mixer Tools -->
<svg width="800px" height="800px" viewBox="0 0 1024 1024" class="icon" version="1.1" xmlns="http://www.w3.org/2000/svg">
    <path d="M403.9 672.5h217.4v222.6H403.9z" fill="#A4A9AD" />
    <path d="M497.9 730.3h29.4v164.8h-29.4z" fill="" />
    <path d="M403.9 672.5h217.4v101H403.9z" fill="" />
    <path
        d="M769.4 87c0-12.1-9.9-22-22-22H277.7c-12.1 0-22 9.9-22 22v621.4c0 12.1 9.9 22 22 22h469.8c12.1 0 22-9.9 22-22V87z"
        fill="#D1D3D3" />
    <path d="M723.2 111.2m-14.9 0a14.9 14.9 0 1 0 29.8 0 14.9 14.9 0 1 0-29.8 0Z" fill="#A4A9AD" />
    <path d="M302 111.2m-14.9 0a14.9 14.9 0 1 0 29.8 0 14.9 14.9 0 1 0-29.8 0Z" fill="#A4A9AD" />
    <path d="M723.2 684m-14.9 0a14.9 14.9 0 1 0 29.8 0 14.9 14.9 0 1 0-29.8 0Z" fill="#A4A9AD" />
    <path d="M302 684m-14.9 0a14.9 14.9 0 1 0 29.8 0 14.9 14.9 0 1 0-29.8 0Z" fill="#A4A9AD" />
    <path
        d="M350.2 653.4c-9.7 0-17.6-7.9-17.6-17.6V159.5c0-9.7 7.9-17.6 17.6-17.6h324.7c9.7 0 17.6 7.9 17.6 17.6v476.3c0 9.7-7.9 17.6-17.6 17.6H350.2z"
        fill="#00B3E3" />
    <path d="M442.1 653.4h232.8c9.7 0 17.6-7.9 17.6-17.6V290.6C548.2 349 445.7 489 442.1 653.4z" fill="#0071CE" />
    <path
        d="M674.9 141.9H350.2c-9.7 0-17.6 7.9-17.6 17.6v32.2c0-9.7 7.9-17.6 17.6-17.6h324.7c9.7 0 17.6 7.9 17.6 17.6v-32.2c0-9.7-7.9-17.6-17.6-17.6z"
        fill="" />
    <path
        d="M693.2 939c0 12.1-9.9 22-22 22H353.9c-12.1 0-22-9.9-22-22v-36.8c0-12.1 9.9-22 22-22h317.4c12.1 0 22 9.9 22 22l-0.1 36.8z"
        fill="#D1D3D3" />
    <path
        d="M530.2 256.3H396.1c-8.1 0-14.7-6.6-14.7-14.7s6.6-14.7 14.7-14.7h134.1c8.1 0 14.7 6.6 14.7 14.7-0.1 8.1-6.6 14.7-14.7 14.7zM463.1 329h-67c-8.1 0-14.7-6.6-14.7-14.7s6.6-14.7 14.7-14.7h67c8.1 0 14.7 6.6 14.7 14.7s-6.6 14.7-14.7 14.7z"
        fill="#FFFFFF" />
</svg>