<?xml version="1.0" encoding="iso-8859-1"?>
<!-- Uploaded to: SVG Repo, www.svgrepo.com, Generator: SVG Repo Mixer Tools -->
<svg height="800px" width="800px" version="1.1" id="Layer_1" xmlns="http://www.w3.org/2000/svg"
	xmlns:xlink="http://www.w3.org/1999/xlink" viewBox="0 0 512 512" xml:space="preserve">
	<path style="fill:#A65A3A;"
		d="M258.636,8.192v495.616C394.294,502.403,503.83,391.985,503.83,256S394.294,9.597,258.636,8.192z" />
	<path style="fill:#D37e4F;" d="M258.636,8.192C370.23,9.902,460.255,120.2,460.255,256S370.23,502.098,258.636,503.808
	c-0.871,0.011-1.754,0.022-2.636,0.022C119.133,503.83,8.17,392.867,8.17,256S119.133,8.17,256,8.17
	C256.882,8.17,257.765,8.181,258.636,8.192z" />
	<path style="fill:#D1F1FF;" d="M258.211,51.766v408.467C369.827,459.057,460.255,367.888,460.255,256S369.827,52.943,258.211,51.766
	z" />
	<path style="fill:#FFFFFF;" d="M258.211,51.766C351.809,53.183,427.574,144.253,427.574,256s-75.765,202.817-169.363,204.234
	c-0.73,0.011-1.471,0.022-2.211,0.022c-112.629,0-204.255-91.626-204.255-204.255S143.371,51.745,256,51.745
	C256.741,51.745,257.482,51.756,258.211,51.766z" />
	<g>
		<path style="fill:#74C8EE;"
			d="M256,435.074c-98.742,0-179.074-80.332-179.074-179.074S157.259,76.926,256,76.926
		c98.742,0,179.074,80.333,179.074,179.074C435.074,354.742,354.742,435.074,256,435.074z M256,91.926
		C165.529,91.926,91.926,165.53,91.926,256S165.529,420.074,256,420.074S420.074,346.471,420.074,256S346.471,91.926,256,91.926z" />
		<path style="fill:#74C8EE;" d="M256,108.266c-4.142,0-7.5-3.358-7.5-7.5v-16.34c0-4.142,3.358-7.5,7.5-7.5
		c4.143,0,7.5,3.358,7.5,7.5v16.34C263.5,104.908,260.143,108.266,256,108.266z" />
		<path style="fill:#74C8EE;" d="M178.39,129.064c-2.592,0-5.113-1.345-6.502-3.751l-8.17-14.151
		c-2.071-3.587-0.842-8.174,2.745-10.245c3.587-2.071,8.174-0.842,10.245,2.745l8.17,14.151c2.071,3.587,0.842,8.174-2.745,10.245
		C180.952,128.74,179.662,129.064,178.39,129.064z" />
		<path style="fill:#74C8EE;" d="M121.556,185.884c-1.272,0-2.562-0.324-3.743-1.006l-14.151-8.17
		c-3.587-2.071-4.816-6.658-2.745-10.245s6.657-4.817,10.245-2.745l14.151,8.17c3.587,2.071,4.816,6.658,2.745,10.245
		C126.669,184.539,124.148,185.884,121.556,185.884z" />
		<path style="fill:#74C8EE;" d="M100.766,263.5h-16.34c-4.142,0-7.5-3.357-7.5-7.5c0-4.142,3.358-7.5,7.5-7.5h16.34
		c4.142,0,7.5,3.358,7.5,7.5C108.266,260.143,104.908,263.5,100.766,263.5z" />
		<path style="fill:#74C8EE;" d="M107.419,349.288c-2.592,0-5.113-1.345-6.502-3.751c-2.071-3.587-0.842-8.174,2.745-10.245
		l14.151-8.17c3.586-2.07,8.174-0.843,10.245,2.745c2.071,3.587,0.842,8.174-2.745,10.245l-14.151,8.17
		C109.981,348.964,108.691,349.288,107.419,349.288z" />
		<path style="fill:#74C8EE;" d="M170.206,412.089c-1.272,0-2.562-0.324-3.743-1.006c-3.587-2.071-4.816-6.658-2.745-10.245
		l8.17-14.15c2.071-3.588,6.658-4.816,10.245-2.745s4.816,6.658,2.745,10.245l-8.17,14.15
		C175.319,410.744,172.798,412.089,170.206,412.089z" />
		<path style="fill:#74C8EE;" d="M256,435.074c-4.142,0-7.5-3.357-7.5-7.5v-16.34c0-4.143,3.358-7.5,7.5-7.5
		c4.143,0,7.5,3.357,7.5,7.5v16.34C263.5,431.717,260.143,435.074,256,435.074z" />
		<path style="fill:#74C8EE;" d="M341.794,412.089c-2.592,0-5.112-1.345-6.502-3.751l-8.17-14.15
		c-2.071-3.587-0.842-8.174,2.745-10.245c3.586-2.07,8.174-0.842,10.245,2.745l8.17,14.15c2.071,3.587,0.842,8.174-2.745,10.245
		C344.356,411.765,343.066,412.089,341.794,412.089z" />
		<path style="fill:#74C8EE;" d="M404.581,349.288c-1.272,0-2.563-0.324-3.743-1.006l-14.15-8.17
		c-3.587-2.071-4.816-6.658-2.745-10.245c2.069-3.588,6.658-4.816,10.245-2.745l14.15,8.17c3.587,2.071,4.816,6.658,2.745,10.245
		C409.694,347.943,407.173,349.288,404.581,349.288z" />
		<path style="fill:#74C8EE;" d="M427.574,263.5h-16.34c-4.143,0-7.5-3.357-7.5-7.5c0-4.142,3.357-7.5,7.5-7.5h16.34
		c4.143,0,7.5,3.358,7.5,7.5C435.074,260.143,431.717,263.5,427.574,263.5z" />
		<path style="fill:#74C8EE;" d="M390.444,185.884c-2.592,0-5.112-1.345-6.502-3.751c-2.071-3.587-0.842-8.174,2.745-10.245
		l14.15-8.17c3.585-2.071,8.174-0.842,10.245,2.745c2.071,3.587,0.842,8.174-2.745,10.245l-14.15,8.17
		C393.007,185.56,391.717,185.884,390.444,185.884z" />
		<path style="fill:#74C8EE;" d="M333.61,129.064c-1.272,0-2.562-0.324-3.743-1.006c-3.587-2.071-4.816-6.658-2.745-10.245
		l8.17-14.151c2.07-3.587,6.655-4.817,10.245-2.745c3.587,2.071,4.816,6.658,2.745,10.245l-8.17,14.151
		C338.724,127.719,336.202,129.064,333.61,129.064z" />
	</g>
	<path d="M437.019,74.981C388.667,26.628,324.38,0,256,0S123.332,26.628,74.981,74.981C26.628,123.333,0,187.62,0,256
	s26.628,132.668,74.981,181.019C123.332,485.372,187.62,512,256,512s132.667-26.628,181.019-74.981
	C485.372,388.668,512,324.38,512,256S485.372,123.333,437.019,74.981z M256,495.66C123.851,495.66,16.34,388.15,16.34,256
	C16.34,123.852,123.85,16.34,256,16.34S495.66,123.852,495.66,256C495.66,388.149,388.149,495.66,256,495.66z" />
	<path d="M234.213,264.17h13.617v13.617c0,4.512,3.658,8.17,8.17,8.17c4.513,0,8.17-3.658,8.17-8.17V264.17h59.915
	c4.513,0,8.17-3.658,8.17-8.17s-3.657-8.17-8.17-8.17H264.17v-92.596c0-4.512-3.657-8.17-8.17-8.17c-4.512,0-8.17,3.658-8.17,8.17
	v92.596h-13.617c-4.512,0-8.17,3.658-8.17,8.17C226.043,260.512,229.701,264.17,234.213,264.17z" />
	<path d="M256,43.574C138.869,43.574,43.574,138.869,43.574,256c0,50.369,18.027,99.251,50.759,137.642
	c2.928,3.433,8.084,3.844,11.518,0.916s3.843-8.084,0.916-11.518C76.555,347.603,59.915,302.486,59.915,256
	c0-108.121,87.964-196.085,196.085-196.085S452.085,147.879,452.085,256S364.122,452.085,256,452.085
	c-46.486,0-91.603-16.639-127.039-46.853c-3.435-2.927-8.591-2.519-11.518,0.916c-2.927,3.435-2.518,8.591,0.916,11.518
	c38.391,32.733,87.273,50.76,137.641,50.76c117.131,0,212.426-95.294,212.426-212.426S373.131,43.574,256,43.574z" />
</svg>